<?xml version="1.0" encoding="utf-8"?>
<!DOCTYPE svg PUBLIC "-//W3C//DTD SVG 1.1//EN" "http://www.w3.org/Graphics/SVG/1.1/DTD/svg11.dtd">
<svg version="1.1" xmlns="http://www.w3.org/2000/svg" x="0px" y="0px"
	 width="640px" height="640px" viewBox="0 0 640 640" enable-background="new 0 0 640 640" xml:space="preserve">
	<g>
		<path fill="#75D9FB" d="M536.118,226.774c-10.868-4.172-22.399-7.993-34.498-11.448c3.063-12.221,5.524-24.132,7.351-35.644
			c10.412-65.634-1.262-111.845-32.869-130.12c-9.309-5.384-19.979-8.113-31.711-8.113c-35.281,0-79.605,25.638-124.39,69.05
			c-44.786-43.412-89.11-69.05-124.389-69.05c-11.733,0-22.401,2.729-31.711,8.113c-31.609,18.277-43.282,64.488-32.871,130.12
			c1.826,11.512,4.288,23.422,7.35,35.643c-12.1,3.455-23.632,7.276-34.501,11.449C41.919,250.56,7.798,283.79,7.798,320.344
			c0,36.554,34.121,69.784,96.079,93.569c10.869,4.173,22.4,7.994,34.5,11.449c-3.063,12.222-5.525,24.135-7.351,35.649
			c-10.41,65.629,1.263,111.84,32.872,130.116c9.31,5.383,19.98,8.114,31.711,8.114c35.281,0,79.604-25.638,124.389-69.05
			c44.784,43.412,89.107,69.05,124.387,69.05c11.735,0,22.406-2.728,31.714-8.114c31.608-18.275,43.281-64.486,32.873-130.116
			c-1.826-11.514-4.288-23.427-7.351-35.65c12.098-3.454,23.628-7.275,34.495-11.447c61.96-23.784,96.084-57.015,96.084-93.569
			C632.202,283.79,598.078,250.56,536.118,226.774z M444.39,68.06c7.106,0,13.133,1.488,18.426,4.546
			c21.095,12.198,28.351,49.703,19.911,102.901c-1.7,10.72-3.995,21.823-6.844,33.223c-26.162-5.998-54.421-10.427-83.984-13.169
			c-17.25-24.362-35.18-46.518-53.23-65.962C378.008,91.274,416.088,68.06,444.39,68.06z M191.376,351.613
			c5.644,10.938,11.612,21.877,17.889,32.766c6.3,10.929,12.782,21.566,19.401,31.894c-20.013-2.502-39.227-5.836-57.362-9.949
			C176.813,388.543,183.536,370.217,191.376,351.613z M191.376,289.074c-7.839-18.604-14.561-36.929-20.07-54.709
			c18.134-4.114,37.348-7.447,57.361-9.949c-6.621,10.33-13.104,20.97-19.407,31.902
			C202.984,267.204,197.018,278.139,191.376,289.074z M205.479,320.345c8.109-16.873,17.063-33.846,26.791-50.721
			c9.731-16.879,20.002-33.143,30.615-48.618c18.599-1.397,37.704-2.114,57.11-2.114c19.41,0,38.518,0.717,57.121,2.114
			c10.613,15.475,20.885,31.738,30.616,48.617c9.728,16.874,18.682,33.845,26.79,50.718c-8.11,16.877-17.066,33.854-26.796,50.733
			c-9.729,16.876-19.999,33.136-30.609,48.609c-18.603,1.397-37.711,2.114-57.121,2.114c-19.407,0-38.512-0.717-57.112-2.114
			c-10.611-15.472-20.88-31.733-30.609-48.609C222.545,354.196,213.589,337.221,205.479,320.345z M430.735,384.379
			c6.278-10.89,12.246-21.83,17.891-32.769c7.84,18.604,14.562,36.931,20.07,54.712c-18.135,4.114-37.349,7.447-57.362,9.95
			C417.953,405.945,424.434,395.308,430.735,384.379z M448.625,289.072c-5.642-10.935-11.608-21.869-17.883-32.754
			c-6.302-10.932-12.785-21.571-19.406-31.901c20.012,2.503,39.224,5.836,57.357,9.949
			C463.184,252.145,456.463,270.469,448.625,289.072z M320,148.828c12.428,13.486,24.847,28.338,36.993,44.309
			c-12.19-0.565-24.539-0.856-36.998-0.856c-12.456,0-24.801,0.29-36.988,0.855C295.154,177.166,307.572,162.314,320,148.828z
			 M177.184,72.606c5.219-3.016,11.419-4.546,18.426-4.546c28.301,0,66.38,23.214,105.72,61.539
			c-18.05,19.443-35.979,41.599-53.228,65.961c-29.565,2.742-57.825,7.171-83.988,13.169c-2.849-11.4-5.144-22.502-6.844-33.222
			C148.831,122.311,156.09,84.805,177.184,72.606z M145.541,399.743c-11.284-3.23-22.033-6.791-32.154-10.677
			c-50.217-19.279-79.019-44.327-79.019-68.722s28.802-49.443,79.019-68.722c10.121-3.886,20.871-7.447,32.155-10.677
			c7.891,25.681,18.186,52.396,30.591,79.398C163.728,347.346,153.433,374.062,145.541,399.743z M195.61,572.63
			c-7.107,0-13.134-1.488-18.426-4.548c-21.096-12.198-28.354-49.703-19.917-102.898c1.701-10.721,3.996-21.825,6.845-33.226
			c26.163,5.999,54.423,10.428,83.988,13.17c17.249,24.362,35.179,46.519,53.229,65.963
			C261.992,549.416,223.912,572.63,195.61,572.63z M283.005,447.552c12.187,0.565,24.533,0.855,36.99,0.855
			c12.46,0,24.809-0.29,36.999-0.856c-12.147,15.972-24.566,30.824-36.995,44.312C307.571,478.376,295.152,463.524,283.005,447.552z
			 M462.816,568.083c-5.219,3.018-11.42,4.548-18.429,4.548c-28.3,0-66.38-23.214-105.718-61.539
			c18.051-19.444,35.981-41.601,53.231-65.964c29.565-2.742,57.825-7.172,83.988-13.171c2.849,11.402,5.144,22.506,6.844,33.228
			C491.17,518.38,483.911,555.885,462.816,568.083z M526.608,389.067c-10.12,3.885-20.867,7.446-32.149,10.675
			c-7.892-25.682-18.187-52.398-30.592-79.401c12.403-27.001,22.698-53.714,30.589-79.394c11.283,3.229,22.032,6.791,32.152,10.676
			c50.222,19.279,79.023,44.327,79.023,68.722S576.83,369.787,526.608,389.067z M319.998,376.365
			c30.892,0,55.938-25.081,55.938-56.021c0-30.941-25.046-56.021-55.938-56.021c-30.891,0-55.937,25.08-55.937,56.021
			C264.062,351.285,289.108,376.365,319.998,376.365z"/>
	</g>
</svg>